<?xml version="1.0" encoding="UTF-8" standalone="no"?>
<svg width="100px" height="89px" viewBox="0 0 100 89" version="1.1" xmlns="http://www.w3.org/2000/svg" xmlns:xlink="http://www.w3.org/1999/xlink" xmlns:sketch="http://www.bohemiancoding.com/sketch/ns">
    <!-- Generator: Sketch 3.3.3 (12072) - http://www.bohemiancoding.com/sketch -->
    <title>tools</title>
    <desc>Created with Sketch.</desc>
    <defs></defs>
    <g id="Page-1" stroke="none" stroke-width="1" fill="none" fill-rule="evenodd" sketch:type="MSPage">
        <g id="tools" sketch:type="MSLayerGroup" transform="translate(56.500000, 45.000000) rotate(-45.000000) translate(-56.500000, -45.000000) translate(3.000000, -5.000000)" fill="#000000">
            <path d="M103.443731,61.2776921 C100.242884,64.79339 95.6291325,67 90.5,67 C83.5190101,67 77.4927377,62.9123683 74.6840779,57 L64,57 L64,42 L74.6840779,42 L74.6840779,42 C77.4927377,36.0876317 83.5190101,32 90.5,32 C97.2429864,32 103.095244,35.8136629 106.017524,41.4017398 L103.534372,41.0938791 L91.6511551,39.4238019 L84.3178157,48.491444 L88.8676931,59.2291633 L100.75091,60.8992405 L103.443731,61.2776921 L103.443731,61.2776921 Z" id="02" sketch:type="MSShapeGroup"></path>
            <path d="M42.9726027,42 L31.3334463,42 C28.5247864,36.0876317 22.4985141,32 15.5175242,32 C10.3883917,32 5.77464049,34.20661 2.57379278,37.7223079 L5.26661429,38.1007595 L17.1498311,39.7708367 L21.6997085,50.508556 L14.3663691,59.5761981 L2.48315227,57.9061209 L0,57.5982602 C2.92228017,63.1863371 8.77453784,67 15.5175242,67 C22.4985141,67 28.5247864,62.9123683 31.3334463,57 L41.9452055,57 L39.478288,93.0169952 C39.2140433,96.8749673 42.1313,100 45.9939542,100 L51.0060458,100 C54.8625364,100 57.8712135,96.8661961 57.7123474,93.0004531 L55,27 L44,27 L42.9726027,42 L42.9726027,42 Z" id="01" sketch:type="MSShapeGroup"></path>
            <path d="M79,24 L79,18 C79,11.7825521 74,7 74,7 C74,7 67.6914062,0 62,0 L43,0 C42.1438802,0 41.2877604,4 40,4 L36,4 C34.7063802,4 33.8531901,0 33,0 L24,0 L24,24 L33,24 C34.0273438,24 35.0546875,20 36,20 L40,20 C40.9394531,20 41.9697266,24 43,24 L57.0144618,24 C57.1726135,21.2735723 58.6158085,18.8919463 60.7473632,17.4518057 C60.8504637,17.1679442 61.3598834,16.9934082 61.5316143,16.9812951 C62.7162003,16.3547722 64.0666694,16 65.5,16 C65.6058975,16 65.7113427,16.0019365 65.8163021,16.0057762 C65.8775864,16.0019843 65.9387932,16 66,16 C66.1501002,16 66.3002004,16.0187288 66.4506148,16.0525616 C68.1652227,16.2433664 69.7258709,16.9441992 70.9774048,17.9999056 C71.1101212,18 71.2273537,18.1230766 71.350679,18.333975 C72.8695638,19.7756507 73.856247,21.772617 73.9855187,23.9996639 C73.9903458,23.9998877 79,24 79,24 Z" id="00" sketch:type="MSShapeGroup"></path>
        </g>
    </g>
</svg>