<?xml version="1.0" encoding="UTF-8" standalone="no"?>
<svg width="193px" height="30px" viewBox="0 0 193 30" version="1.1" xmlns="http://www.w3.org/2000/svg" xmlns:xlink="http://www.w3.org/1999/xlink" xmlns:sketch="http://www.bohemiancoding.com/sketch/ns">
    <!-- Generator: Sketch 3.4 (15588) - http://www.bohemiancoding.com/sketch -->
    <title>//// WORK</title>
    <desc>Created with Sketch.</desc>
    <defs></defs>
    <g id="Page-1" stroke="none" stroke-width="1" fill="none" fill-rule="evenodd" sketch:type="MSPage">
        <path d="M5.37992177,29.077236 L0.2,29.077236 L16.8740548,0.72 L22.0539765,0.72 L5.37992177,29.077236 Z M15.5885267,29.077236 L10.408605,29.077236 L27.0826597,0.72 L32.2625815,0.72 L15.5885267,29.077236 Z M25.9861799,29.077236 L20.8062581,29.077236 L37.4803129,0.72 L42.6602347,0.72 L25.9861799,29.077236 Z M37.5181226,29.077236 L32.3382008,29.077236 L49.0122555,0.72 L54.1921773,0.72 L37.5181226,29.077236 Z M97.5220339,0.984667536 L105.121773,0.984667536 L98.8453716,29.3419035 L87.9183833,29.3419035 L84.0617992,11.571369 L83.759322,11.571369 L79.6380704,29.3419035 L68.8245111,29.3419035 L62.6993481,0.984667536 L70.3747066,0.984667536 L74.4581486,22.8008344 L74.6471969,22.8008344 L80.0539765,0.984667536 L87.9183833,0.984667536 L92.9848761,22.8008344 L93.0983051,22.8008344 L97.5220339,0.984667536 Z M119.943155,29.72 C118.027457,29.72 116.263024,29.581366 114.649804,29.3040939 C113.036585,29.0268217 111.650245,28.497492 110.490743,27.7160887 C109.331241,26.9346854 108.430121,25.8634227 107.787353,24.5022686 C107.144586,23.1411144 106.823207,21.3640788 106.823207,19.1711082 L106.823207,11.1554628 C106.823207,8.96249229 107.144586,7.18545661 107.787353,5.82430248 C108.430121,4.46314834 109.331241,3.40448879 110.490743,2.64829205 C111.650245,1.89209531 113.036585,1.38167016 114.649804,1.1170013 C116.263024,0.852332445 118.027457,0.72 119.943155,0.72 C121.858854,0.72 123.623286,0.852332445 125.236506,1.1170013 C126.849726,1.38167016 128.236065,1.89209531 129.395567,2.64829205 C130.555069,3.40448879 131.45619,4.46314834 132.098957,5.82430248 C132.741724,7.18545661 133.063103,8.96249229 133.063103,11.1554628 L133.063103,19.1711082 C133.063103,21.3640788 132.741724,23.1411144 132.098957,24.5022686 C131.45619,25.8634227 130.555069,26.9346854 129.395567,27.7160887 C128.236065,28.497492 126.849726,29.0268217 125.236506,29.3040939 C123.623286,29.581366 121.858854,29.72 119.943155,29.72 L119.943155,29.72 Z M119.943155,23.1411213 C120.926211,23.1411213 121.758015,23.0907089 122.438592,22.9898827 C123.119169,22.8890564 123.667403,22.6685024 124.083312,22.3282138 C124.49922,21.9879253 124.801694,21.5027063 124.990743,20.8725424 C125.179792,20.2423784 125.274316,19.3979714 125.274316,18.339296 L125.274316,11.9494654 C125.274316,10.89079 125.179792,10.0589861 124.990743,9.45402868 C124.801694,8.84907129 124.49922,8.38275696 124.083312,8.05507171 C123.667403,7.72738645 123.119169,7.51943547 122.438592,7.43121252 C121.758015,7.34298956 120.926211,7.29887875 119.943155,7.29887875 C118.960099,7.29887875 118.128295,7.34298956 117.447718,7.43121252 C116.767141,7.51943547 116.218907,7.72108491 115.802999,8.03616688 C115.38709,8.35124886 115.084616,8.81756319 114.895567,9.43512386 C114.706518,10.0526845 114.611995,10.89079 114.611995,11.9494654 L114.611995,18.339296 C114.611995,19.3979714 114.706518,20.2423784 114.895567,20.8725424 C115.084616,21.5027063 115.38709,21.9879253 115.802999,22.3282138 C116.218907,22.6685024 116.767141,22.8890564 117.447718,22.9898827 C118.128295,23.0907089 118.960099,23.1411213 119.943155,23.1411213 L119.943155,23.1411213 Z M144.784094,29.3419035 L137.222164,29.3419035 L137.222164,0.984667536 L151.816688,0.984667536 C153.455115,0.984667536 154.872962,1.11699998 156.070274,1.38166884 C157.267585,1.6463377 158.256928,2.10004894 159.038331,2.74281617 C159.819734,3.3855834 160.393175,4.2551966 160.75867,5.35168188 C161.124165,6.44816715 161.30691,7.81560241 161.30691,9.45402868 C161.30691,10.8908025 161.250196,12.1133022 161.136767,13.1215645 C161.023337,14.1298269 160.79018,14.9679323 160.437288,15.6359061 C160.084396,16.3038799 159.573971,16.8458128 158.905997,17.261721 C158.238024,17.6776292 157.336903,18.0242142 156.202608,18.3014863 L156.202608,18.6039635 C157.916654,18.7804094 159.195867,19.2593268 160.040287,20.0407301 C160.884707,20.8221334 161.30691,22.019427 161.30691,23.6326467 L161.30691,29.3419035 L153.74498,29.3419035 L153.74498,24.6535072 C153.74498,23.5696252 153.511823,22.7063135 153.045502,22.0635463 C152.579181,21.4207791 151.778884,21.0994003 150.644589,21.0994003 L144.784094,21.0994003 L144.784094,29.3419035 Z M144.784094,14.898618 L150.644589,14.898618 C151.375579,14.898618 151.94902,14.8356025 152.364928,14.7095698 C152.780836,14.583537 153.089612,14.3503798 153.291265,14.0100913 C153.492917,13.6698027 153.618948,13.2160915 153.669361,12.6489439 C153.719774,12.0817964 153.74498,11.3571187 153.74498,10.4748892 C153.74498,9.21456128 153.543331,8.35124962 153.140026,7.88492829 C152.736721,7.41860697 151.904917,7.1854498 150.644589,7.1854498 L144.784094,7.1854498 L144.784094,14.898618 Z M173.14133,11.6469883 L175.409909,11.6469883 L182.707171,0.984667536 L191.857106,0.984667536 L181.875359,14.898618 L192.688918,29.3419035 L183.312125,29.3419035 L175.409909,18.225867 L173.14133,18.225867 L173.14133,29.3419035 L165.5794,29.3419035 L165.5794,0.984667536 L173.14133,0.984667536 L173.14133,11.6469883 Z" id="////-WORK" fill="#005A9E" sketch:type="MSShapeGroup"></path>
    </g>
</svg>