<?xml version="1.0" encoding="UTF-8" standalone="no"?>
<svg width="135px" height="42px" viewBox="0 0 135 42" version="1.1" xmlns="http://www.w3.org/2000/svg" xmlns:xlink="http://www.w3.org/1999/xlink" xmlns:sketch="http://www.bohemiancoding.com/sketch/ns">
    <!-- Generator: Sketch 3.3.3 (12072) - http://www.bohemiancoding.com/sketch -->
    <title>LOGO</title>
    <desc>Created with Sketch.</desc>
    <defs></defs>
    <g id="Page-1" stroke="none" stroke-width="1" fill="none" fill-rule="evenodd" sketch:type="MSPage">
        <g id="LOGO" sketch:type="MSLayerGroup">
            <path d="M15.4841959,30.9734801 L30.9734796,15.4841968 L56.4665646,41.6162436 L56.559686,41.7116991 L25.9605389,41.7116991 L15.4841959,30.9734801 Z" id="floppy" fill-opacity="0.399999976" fill="#000000" sketch:type="MSShapeGroup"></path>
            <path d="M134.781266,41.7116991 L99.2382343,5.28009123 L93.1914201,7.19554077 L89.7838471,11.2185145 L84.4865359,5.78877049 L75.1745662,8.0962282 L71.4016731,13.7667489 L63.1220071,5.28009123 L55.4964661,8.7438742 L52.8796087,14.5946899 L43.7921954,5.28009123 L40.5366512,23.1092985 L58.6853345,41.7116991 L134.781266,41.7116991 Z" id="Rectangle-1" fill-opacity="0.399999976" fill="#000000" sketch:type="MSShapeGroup"></path>
            <path d="M15.4841959,30.9734801 L0,15.4866765 L3.09733525,12.3893413 L9.29200576,18.5840118 L18.5767749,9.28476938 L12.389341,3.09733553 L15.4866765,0 L30.9734796,15.4841968 L15.4841959,30.9734801 Z" id="floppy" fill="#FFFFFF" sketch:type="MSShapeGroup"></path>
            <path d="M40.5366512,23.1092985 L51.1181959,23.1082813 L51.1181959,20.3837952 L43.7911799,20.3837952 L43.7921954,5.28009123 L40.5376673,5.28009069 L40.5366512,23.1092985 Z M51.620771,14.1087279 C51.620771,19.3460895 54.7949295,23.1815311 59.8206806,23.1815311 C64.7406264,23.1815311 68.3644574,19.7693106 68.3644574,13.791312 C68.3644574,8.71265831 65.2961041,4.77141143 60.0851938,4.77141143 C55.0594428,4.77141143 51.620771,8.63330435 51.620771,14.1087279 Z M60.0058398,7.36364092 C63.2593524,7.36364092 64.9257856,10.5642508 64.9257856,13.9235686 C64.9257856,17.6532049 63.1535471,20.5893016 60.0058398,20.5893016 C56.8845839,20.5893016 55.0594428,17.6796562 55.0594428,14.0558252 C55.0594428,10.3790916 56.7787786,7.36364092 60.0058398,7.36364092 L60.0058398,7.36364092 Z M85.452011,13.050675 L79.1565965,13.050675 L79.1565965,15.6164532 L82.3043038,15.6164532 L82.3043038,20.0602752 C81.8810826,20.2718857 81.008189,20.4305937 79.8443309,20.4305937 C76.1411459,20.4305937 73.6547217,18.0235234 73.6547217,13.9764713 C73.6547217,9.82361381 76.3263051,7.57525149 80.1352954,7.57525149 C82.0133392,7.57525149 83.2036487,7.91911867 84.1823476,8.34233981 L84.8965332,5.723659 C84.0765423,5.32688918 82.3572064,4.87721671 80.1617467,4.87721671 C74.2631021,4.87721671 70.2425012,8.50104774 70.2425012,14.1351792 C70.2160499,16.833214 71.1418461,19.1873816 72.7289254,20.6951069 C74.42181,22.3086375 76.6966236,23.0757258 79.7120743,23.0757258 C82.0926932,23.0757258 84.3146042,22.4937967 85.452011,22.0705756 L85.452011,13.050675 Z M96.3235041,4.77141143 C91.297753,4.77141143 87.8590812,8.63330435 87.8590812,14.1087279 C87.8590812,19.3460895 91.0332398,23.1815311 96.0589909,23.1815311 C100.978937,23.1815311 104.602768,19.7693106 104.602768,13.791312 C104.602768,8.71265831 101.534414,4.77141143 96.3235041,4.77141143 L96.3235041,4.77141143 Z M96.2441501,7.36364092 C99.4976626,7.36364092 101.164096,10.5642508 101.164096,13.9235686 C101.164096,17.6532049 99.3918573,20.5893016 96.2441501,20.5893016 C93.1228942,20.5893016 91.297753,17.6796562 91.297753,14.0558252 C91.297753,10.3790916 93.0170889,7.36364092 96.2441501,7.36364092 L96.2441501,7.36364092 Z" fill="#FFFFFF" sketch:type="MSShapeGroup"></path>
        </g>
    </g>
</svg>